<svg width="32" height="32" viewBox="0 0 32 32" fill="none" xmlns="http://www.w3.org/2000/svg">
<path d="M3.33718 25.4834H0.146689L4.54736 9.65314C4.62071 9.43173 4.68183 9.14883 4.73072 8.80443C4.80407 8.43542 4.80407 8.10332 4.73072 7.80812C4.65738 7.51291 4.42512 7.36531 4.03395 7.36531C3.49609 7.36531 3.00713 7.64822 2.56706 8.21402C2.12699 8.77983 1.66248 9.75154 1.17351 11.1292L0.696773 12.4945H0L0.916807 9.80074C1.28353 8.76753 1.71137 7.98032 2.20034 7.43911C2.71375 6.89791 3.23939 6.5289 3.77724 6.3321C4.33955 6.1107 4.86519 6 5.35415 6C6.0876 6 6.61323 6.1722 6.93106 6.51661C7.24889 6.83641 7.42003 7.26691 7.44447 7.80812C7.49337 8.32472 7.4567 8.87823 7.33446 9.46863C7.21222 10.059 7.07775 10.6248 6.93106 11.1661L3.33718 25.4834ZM13.7154 10.2804C13.8866 9.76384 13.9966 9.27183 14.0455 8.80443C14.1188 8.33702 14.0822 7.95572 13.9355 7.66052C13.8132 7.34071 13.5198 7.18081 13.0553 7.18081C12.3708 7.18081 11.6129 7.61132 10.7817 8.47232C9.97486 9.30873 9.14362 10.4895 8.28794 12.0148C7.4567 13.5154 6.64991 15.2743 5.86757 17.2915C5.08522 19.2841 4.38845 21.4244 3.77724 23.7122L4.98743 17.8081C6.11205 14.8561 7.16332 12.5191 8.14125 10.797C9.11917 9.07503 10.0971 7.84502 11.075 7.10701C12.0774 6.369 13.1409 6 14.2655 6C15.0479 6 15.6102 6.1845 15.9524 6.55351C16.3192 6.89791 16.5392 7.35301 16.6125 7.91882C16.6859 8.48462 16.6614 9.08733 16.5392 9.72694C16.4414 10.3665 16.3192 10.9815 16.1725 11.572L12.4319 25.4834H9.1314L13.7154 10.2804ZM22.8835 10.2804C23.128 9.51783 23.2502 8.81673 23.2502 8.17712C23.2502 7.51291 22.9813 7.18081 22.4434 7.18081C21.71 7.18081 20.9399 7.61132 20.1331 8.47232C19.3263 9.33333 18.4951 10.5633 17.6394 12.1624C16.7837 13.7368 15.928 15.5941 15.0723 17.7343C14.2411 19.8499 13.4343 22.187 12.6519 24.7454L13.4954 20.0221C14.4489 17.4637 15.329 15.2989 16.1358 13.5277C16.9426 11.7319 17.7372 10.2804 18.5195 9.17343C19.3018 8.06642 20.1086 7.26691 20.9399 6.77491C21.7711 6.2583 22.6757 6 23.6536 6C24.6804 6 25.3772 6.2952 25.7439 6.88561C26.1107 7.47601 26.2574 8.20172 26.184 9.06273C26.1351 9.89914 25.9762 10.7355 25.7073 11.572L22.1501 22.3469C21.9056 23.1095 21.82 23.6876 21.8934 24.0812C21.9667 24.4502 22.2479 24.6347 22.7368 24.6347C23.2013 24.6347 23.6536 24.3764 24.0937 23.8598C24.5582 23.3432 25.0472 22.3469 25.5606 20.8708L26.0373 19.5055H26.7341L25.8173 22.1993C25.475 23.2325 25.0472 24.0197 24.5338 24.5609C24.0448 25.1021 23.5192 25.4711 22.9568 25.6679C22.419 25.8893 21.8934 26 21.3799 26C20.7687 26 20.2798 25.9016 19.913 25.7048C19.5708 25.5326 19.3018 25.2989 19.1063 25.0037C18.8129 24.5363 18.7151 23.9582 18.8129 23.2694C18.9107 22.556 19.1063 21.7442 19.3996 20.8339L22.8835 10.2804Z" fill="#EBEBEB"/>
<path d="M27.416 24.1181C27.416 23.3801 27.6971 22.7282 28.2594 22.1624C28.8217 21.572 29.4452 21.2768 30.1297 21.2768C30.692 21.2768 31.1443 21.4613 31.4866 21.8303C31.8289 22.1993 32 22.6544 32 23.1956C32 23.6876 31.8655 24.155 31.5966 24.5978C31.3521 25.016 31.0221 25.3481 30.6065 25.5941C30.1908 25.8647 29.7385 26 29.2496 26C28.7117 26 28.2717 25.8278 27.9294 25.4834C27.5871 25.1144 27.416 24.6593 27.416 24.1181Z" fill="#EBEBEB"/>
</svg>
