<svg width="60" height="38" viewBox="0 0 60 38" fill="none" xmlns="http://www.w3.org/2000/svg">
<path d="M6.25721 37.0185H0.275042L8.52631 6.94096C8.66383 6.52029 8.77843 5.98278 8.87011 5.32841C9.00763 4.62731 9.00763 3.99631 8.87011 3.43542C8.73259 2.87454 8.2971 2.59409 7.56366 2.59409C6.55517 2.59409 5.63836 3.13161 4.81324 4.20664C3.98811 5.28167 3.11714 7.12792 2.20034 9.74539L1.30645 12.3395H0L1.71901 7.2214C2.40662 5.2583 3.20882 3.76261 4.12563 2.73432C5.08828 1.70602 6.07385 1.00492 7.08233 0.630992C8.13666 0.210331 9.12223 0 10.039 0C11.4142 0 12.3998 0.327183 12.9957 0.98155C13.5917 1.58917 13.9125 2.40713 13.9584 3.43542C14.0501 4.41697 13.9813 5.46863 13.7521 6.5904C13.5229 7.71218 13.2708 8.78721 12.9957 9.8155L6.25721 37.0185ZM25.7164 8.13284C26.0373 7.15129 26.2436 6.21648 26.3353 5.32841C26.4728 4.44034 26.404 3.71587 26.129 3.15498C25.8998 2.54735 25.3497 2.24354 24.4787 2.24354C23.1952 2.24354 21.7742 3.0615 20.2156 4.69742C18.7029 6.28659 17.1443 8.53013 15.5399 11.428C13.9813 14.2792 12.4686 17.6212 11.0017 21.4539C9.53479 25.2399 8.22834 29.3063 7.08233 33.6531L9.35143 22.4354C11.4601 16.8266 13.4312 12.3862 15.2648 9.11439C17.0985 5.84256 18.9321 3.50553 20.7657 2.10332C22.6451 0.701106 24.6392 0 26.7478 0C28.2147 0 29.2691 0.350553 29.9108 1.05166C30.5984 1.70603 31.011 2.57072 31.1485 3.64576C31.286 4.72079 31.2402 5.86593 31.011 7.08118C30.8276 8.29643 30.5984 9.46494 30.3234 10.5867L23.3098 37.0185H17.1214L25.7164 8.13284ZM42.9066 8.13284C43.365 6.68388 43.5942 5.35178 43.5942 4.13653C43.5942 2.87454 43.0899 2.24354 42.0814 2.24354C40.7062 2.24354 39.2623 3.0615 37.7495 4.69742C36.2368 6.33333 34.6782 8.67035 33.0738 11.7085C31.4694 14.6999 29.865 18.2288 28.2606 22.2952C26.702 26.3149 25.1893 30.7552 23.7224 35.6162L25.3039 26.6421C27.0916 21.7811 28.7419 17.6679 30.2546 14.3026C31.7674 10.8905 33.2572 8.13284 34.7241 6.02952C36.191 3.9262 37.7037 2.40713 39.2623 1.47232C40.8208 0.490774 42.5169 0 44.3505 0C46.2758 0 47.5823 0.560885 48.2699 1.68266C48.9575 2.80443 49.2325 4.18327 49.095 5.81919C49.0033 7.40836 48.7054 8.99754 48.2011 10.5867L41.5314 31.059C41.073 32.508 40.9125 33.6064 41.05 34.3542C41.1876 35.0553 41.7147 35.4059 42.6315 35.4059C43.5025 35.4059 44.3505 34.9151 45.1757 33.9336C46.0466 32.952 46.9634 31.059 47.9261 28.2546L48.82 25.6605H50.1264L48.4074 30.7786C47.7656 32.7417 46.9634 34.2374 46.0008 35.2657C45.084 36.294 44.0984 36.9951 43.0441 37.369C42.0356 37.7897 41.05 38 40.0874 38C38.9414 38 38.0246 37.813 37.337 37.4391C36.6952 37.1119 36.191 36.6679 35.8242 36.107C35.2742 35.2189 35.0908 34.1205 35.2742 32.8118C35.4575 31.4563 35.8242 29.9139 36.3743 28.1845L42.9066 8.13284Z" fill="#EBEBEB"/>
<path d="M51.4049 34.4244C51.4049 33.0221 51.9321 31.7835 52.9864 30.7085C54.0408 29.5867 55.2097 29.0258 56.4932 29.0258C57.5475 29.0258 58.3956 29.3764 59.0374 30.0775C59.6791 30.7786 60 31.6433 60 32.6716C60 33.6064 59.7479 34.4945 59.2436 35.3358C58.7852 36.1304 58.1664 36.7614 57.3871 37.2288C56.6078 37.7429 55.7598 38 54.843 38C53.8345 38 53.0093 37.6728 52.3676 37.0185C51.7258 36.3173 51.4049 35.4526 51.4049 34.4244Z" fill="#EBEBEB"/>
</svg>
