<svg width="1796" height="1714" viewBox="0 0 1796 1714" fill="none" xmlns="http://www.w3.org/2000/svg">
<g clip-path="url(#clip0_1195_1198)">
<g opacity="0.65">
<mask id="mask0_1195_1198" style="mask-type:luminance" maskUnits="userSpaceOnUse" x="-1730" y="-247" width="4019" height="2127">
<path d="M2288.99 748.677L-1426.92 -247L-1730 884.099L1985.92 1879.78L2288.99 748.677Z" fill="white"/>
</mask>
<g mask="url(#mask0_1195_1198)">
<g opacity="0.4" filter="url(#filter0_f_1195_1198)">
<path fill-rule="evenodd" clip-rule="evenodd" d="M1135.68 945.771C1282.79 1052.8 1425.44 1156.59 1368.78 1213.77C1278.98 1304.05 784.735 1282.62 353.141 1195.96C42.482 1133.57 -224.228 1042.41 -414.074 951.906C-840.332 748.62 -906.416 564.685 -703.813 432.017C-570.531 344.858 -362.058 328.457 -143.182 351.777C91.6917 377.009 336.789 448.442 510.099 523.549C627.173 574.21 827.101 678.153 927.311 779.612C978.803 831.635 1057.87 889.159 1135.69 945.777L1135.68 945.771ZM-3.30276 884.207C222.002 960.295 455.467 963.325 518.169 890.979C580.875 818.633 449.074 698.301 223.775 622.215C-1.51688 546.128 -234.995 543.095 -297.697 615.443C-360.4 687.791 -228.597 808.117 -3.30276 884.207Z" fill="url(#paint0_linear_1195_1198)"/>
</g>
<g filter="url(#filter1_df_1195_1198)">
<path fill-rule="evenodd" clip-rule="evenodd" d="M-116.036 1013.13C301.377 1154.1 750.024 1159.75 828.153 1090.45C861.473 1060.9 913.719 1015.78 827.984 936.401C801.512 907.812 767.01 902.392 740.72 871.38C718.56 845.231 707.799 793.545 690.748 766.962C648.532 701.173 607.177 636.725 493.599 586.886C120.718 423.261 -482.42 402.369 -598.597 536.409C-714.775 670.454 -533.44 872.158 -116.028 1013.13L-116.036 1013.13ZM-27.3815 910.841C234.948 999.438 478.525 1012.85 551.544 928.613C624.557 844.373 466.934 709.107 124.191 593.352C-138.139 504.755 -297.145 513.659 -370.164 597.898C-443.178 682.137 -289.711 822.245 -27.3803 910.837L-27.3815 910.841Z" fill="url(#paint1_radial_1195_1198)"/>
</g>
<g filter="url(#filter2_f_1195_1198)">
<path d="M1189.48 1158.05C1067.93 1298.28 281.196 1173.74 -155.467 1026.27C-592.167 878.787 -847.641 645.545 -726.093 505.311C-604.557 365.075 -151.998 370.953 284.69 518.434C501.6 591.69 637.693 748 824.183 871.134C1013.16 995.905 1250.69 1087.48 1189.53 1158.06L1189.48 1158.05Z" fill="url(#paint2_linear_1195_1198)" fill-opacity="0.97"/>
</g>
</g>
</g>
</g>
<defs>
<filter id="filter0_f_1195_1198" x="-1121.91" y="34.1831" width="2811.4" height="1545.84" filterUnits="userSpaceOnUse" color-interpolation-filters="sRGB">
<feFlood flood-opacity="0" result="BackgroundImageFix"/>
<feBlend mode="normal" in="SourceGraphic" in2="BackgroundImageFix" result="shape"/>
<feGaussianBlur stdDeviation="154" result="effect1_foregroundBlur_1195_1198"/>
</filter>
<filter id="filter1_df_1195_1198" x="-677.094" y="402.422" width="1595.77" height="773.347" filterUnits="userSpaceOnUse" color-interpolation-filters="sRGB">
<feFlood flood-opacity="0" result="BackgroundImageFix"/>
<feColorMatrix in="SourceAlpha" type="matrix" values="0 0 0 0 0 0 0 0 0 0 0 0 0 0 0 0 0 0 127 0" result="hardAlpha"/>
<feOffset dy="-2"/>
<feGaussianBlur stdDeviation="22"/>
<feComposite in2="hardAlpha" operator="out"/>
<feColorMatrix type="matrix" values="0 0 0 0 0.0195659 0 0 0 0 0.631952 0 0 0 0 0.670833 0 0 0 0.9 0"/>
<feBlend mode="normal" in2="BackgroundImageFix" result="effect1_dropShadow_1195_1198"/>
<feBlend mode="normal" in="SourceGraphic" in2="effect1_dropShadow_1195_1198" result="shape"/>
<feGaussianBlur stdDeviation="20" result="effect2_foregroundBlur_1195_1198"/>
</filter>
<filter id="filter2_f_1195_1198" x="-896.359" y="263.861" width="2235.69" height="1095.48" filterUnits="userSpaceOnUse" color-interpolation-filters="sRGB">
<feFlood flood-opacity="0" result="BackgroundImageFix"/>
<feBlend mode="normal" in="SourceGraphic" in2="BackgroundImageFix" result="shape"/>
<feGaussianBlur stdDeviation="70" result="effect1_foregroundBlur_1195_1198"/>
</filter>
<linearGradient id="paint0_linear_1195_1198" x1="855.867" y1="1258.3" x2="726.247" y2="187.355" gradientUnits="userSpaceOnUse">
<stop stop-color="#2442AB"/>
<stop offset="1" stop-color="#33A8D4"/>
</linearGradient>
<radialGradient id="paint1_radial_1195_1198" cx="0" cy="0" r="1" gradientUnits="userSpaceOnUse" gradientTransform="translate(78.5887 537.065) rotate(116.214) scale(527.612 602.604)">
<stop stop-color="#C042D5"/>
<stop offset="0.307292" stop-color="#FDB07B"/>
<stop offset="0.661458" stop-color="#F3D3A1"/>
<stop offset="1" stop-color="#C042D5"/>
</radialGradient>
<linearGradient id="paint2_linear_1195_1198" x1="1248.84" y1="1184.47" x2="-181.903" y2="-100.547" gradientUnits="userSpaceOnUse">
<stop stop-color="#02226C"/>
<stop offset="0.16591" stop-color="#164787"/>
<stop offset="0.30769" stop-color="#8F94FF"/>
<stop offset="0.646881" stop-color="#164787"/>
<stop offset="0.860892" stop-color="#8F94FF"/>
</linearGradient>
<clipPath id="clip0_1195_1198">
<rect width="1796" height="1714" fill="white"/>
</clipPath>
</defs>
</svg>
